<?xml version="1.0" encoding="UTF-8" standalone="no"?>
<!-- Created with Inkscape (http://www.inkscape.org/) -->

<svg
   width="108.224mm"
   height="40mm"
   viewBox="0 0 108.224 40"
   version="1.1"
   id="svg827"
   inkscape:version="1.1 (ce6663b3b7, 2021-05-25)"
   sodipodi:docname="logo-full.svg"
   xmlns:inkscape="http://www.inkscape.org/namespaces/inkscape"
   xmlns:sodipodi="http://sodipodi.sourceforge.net/DTD/sodipodi-0.dtd"
   xmlns:xlink="http://www.w3.org/1999/xlink"
   xmlns="http://www.w3.org/2000/svg"
   xmlns:svg="http://www.w3.org/2000/svg"
   xmlns:rdf="http://www.w3.org/1999/02/22-rdf-syntax-ns#"
   xmlns:cc="http://creativecommons.org/ns#"
   xmlns:dc="http://purl.org/dc/elements/1.1/">
  <defs
     id="defs821">
    <linearGradient
       inkscape:collect="always"
       xlink:href="#linearGradient839"
       id="linearGradient890"
       x1="404.46497"
       y1="227.03935"
       x2="438.97403"
       y2="260.27338"
       gradientUnits="userSpaceOnUse"
       gradientTransform="matrix(0.26458333,0,0,0.26458333,-92.141145,210.381)" />
    <linearGradient
       inkscape:collect="always"
       id="linearGradient839">
      <stop
         style="stop-color:#ff0000;stop-opacity:1"
         offset="0"
         id="stop835" />
      <stop
         style="stop-color:#ffa000;stop-opacity:1"
         offset="1"
         id="stop837" />
    </linearGradient>
  </defs>
  <sodipodi:namedview
     id="base"
     pagecolor="#ffffff"
     bordercolor="#666666"
     borderopacity="1.0"
     inkscape:pageopacity="0.0"
     inkscape:pageshadow="2"
     inkscape:zoom="1.4"
     inkscape:cx="56.071429"
     inkscape:cy="-54.642857"
     inkscape:document-units="mm"
     inkscape:current-layer="layer1"
     showgrid="false"
     inkscape:window-width="1866"
     inkscape:window-height="1016"
     inkscape:window-x="54"
     inkscape:window-y="27"
     inkscape:window-maximized="1"
     inkscape:pagecheckerboard="0" />
  <metadata
     id="metadata824">
    <rdf:RDF>
      <cc:Work
         rdf:about="">
        <dc:format>image/svg+xml</dc:format>
        <dc:type
           rdf:resource="http://purl.org/dc/dcmitype/StillImage" />
      </cc:Work>
    </rdf:RDF>
  </metadata>
  <g
     inkscape:label="Layer 1"
     inkscape:groupmode="layer"
     id="layer1"
     transform="translate(0,-257)">
    <path
       style="fill:url(#linearGradient890);fill-opacity:1;fill-rule:nonzero;stroke:none;stroke-width:0.28614962;stroke-miterlimit:4;stroke-dasharray:none;stroke-opacity:1"
       d="M 6.5778926,256.99986 C 2.9336436,256.99986 0,259.9335 0,263.57775 v 26.84384 C 0,294.06583 2.9336436,297 6.5778926,297 h 1.048515 v -35.08623 c 1.779439,-0.35834 3.6635824,-0.60907 5.6523684,-0.75241 1.988785,-0.14334 3.732958,-0.21497 5.233273,-0.21497 5.408101,0 9.560134,0.98554 12.456084,2.95641 2.89595,1.93502 4.34392,5.12397 4.34392,9.56737 0,4.47923 -1.46527,7.72242 -4.39611,9.72912 -2.930845,1.97086 -7.117998,2.95589 -12.560991,2.95589 H 15.790767 V 297 h 17.630966 c 3.64425,0 6.57841,-2.93417 6.57841,-6.57841 v -26.84384 c 0,-3.64425 -2.93416,-6.57789 -6.57841,-6.57789 z M 19.035529,268.0953 c -0.593145,0 -1.186071,0.0179 -1.779219,0.0537 -0.558255,0.0358 -1.046851,0.0717 -1.465543,0.10749 v 10.75025 h 2.564185 c 2.826168,0 4.954609,-0.39453 6.38514,-1.18288 1.43053,-0.78834 2.146123,-2.25745 2.146123,-4.40748 0,-1.03918 -0.191876,-1.89936 -0.575676,-2.5802 -0.348911,-0.68085 -0.872627,-1.21814 -1.570447,-1.61231 -0.66293,-0.43 -1.48285,-0.71656 -2.4598,-0.85989 -0.976947,-0.17917 -2.058469,-0.26872 -3.244763,-0.26872 z"
       id="rect870"
       inkscape:connector-curvature="0" />
    <g
       aria-label="rokart"
       transform="matrix(0.26700949,0,0,0.26700949,-11.566351,124.34459)"
       style="font-style:normal;font-weight:normal;font-size:40px;line-height:1.25;font-family:sans-serif;letter-spacing:0px;word-spacing:0px;fill:#000000;fill-opacity:1;stroke:none"
       id="flowRoot1399">
      <path
         d="m 227.66658,570.61344 q -1.70667,-0.42666 -4.01067,-0.85333 -2.304,-0.512 -4.94933,-0.512 -1.19467,0 -2.90133,0.256 -1.62134,0.17067 -2.47467,0.42667 v 34.304 h -12.71467 v -42.496 q 3.41334,-1.19467 8.02134,-2.21867 4.69333,-1.10933 10.41066,-1.10933 1.024,0 2.47467,0.17066 1.45067,0.0853 2.90133,0.34134 1.45067,0.17066 2.90134,0.512 1.45066,0.256 2.47466,0.68266 z"
         style="font-style:normal;font-variant:normal;font-weight:bold;font-stretch:normal;font-size:85.33333588px;font-family:Ubuntu;-inkscape-font-specification:Ubuntu;fill:#000000"
         id="path834" />
      <path
         d="m 277.76658,581.70678 q 0,5.29067 -1.536,9.728 -1.536,4.352 -4.43733,7.50933 -2.90134,3.072 -6.99734,4.77867 -4.01066,1.70667 -9.04533,1.70667 -4.94933,0 -9.04533,-1.70667 -4.01067,-1.70667 -6.912,-4.77867 -2.90134,-3.15733 -4.52267,-7.50933 -1.62133,-4.43733 -1.62133,-9.728 0,-5.29067 1.62133,-9.64267 1.70667,-4.352 4.608,-7.424 2.98667,-3.072 6.99733,-4.77867 4.096,-1.70666 8.87467,-1.70666 4.864,0 8.87467,1.70666 4.096,1.70667 6.99733,4.77867 2.90133,3.072 4.52267,7.424 1.62133,4.352 1.62133,9.64267 z m -12.97067,0 q 0,-5.888 -2.38933,-9.216 -2.304,-3.41334 -6.656,-3.41334 -4.352,0 -6.74133,3.41334 -2.38934,3.328 -2.38934,9.216 0,5.888 2.38934,9.38667 2.38933,3.41333 6.74133,3.41333 4.352,0 6.656,-3.41333 2.38933,-3.49867 2.38933,-9.38667 z"
         style="font-style:normal;font-variant:normal;font-weight:bold;font-stretch:normal;font-size:85.33333588px;font-family:Ubuntu;-inkscape-font-specification:Ubuntu;fill:#000000"
         id="path836" />
      <path
         d="m 300.33058,575.56278 q 1.87733,-2.048 3.84,-4.26667 2.048,-2.21867 3.92533,-4.352 1.87734,-2.21867 3.49867,-4.18133 1.70667,-1.96267 2.90133,-3.41334 h 15.104 q -4.52266,5.20534 -8.87466,9.984 -4.26667,4.69334 -9.38667,9.72801 2.56,2.304 5.29067,5.54666 2.73066,3.15734 5.29066,6.57067 2.56,3.41333 4.69334,6.82667 2.13333,3.41333 3.584,6.22933 h -14.592 q -1.36534,-2.21867 -3.15734,-4.864 -1.70666,-2.73067 -3.66933,-5.376 -1.96267,-2.73067 -4.18133,-5.20533 -2.13334,-2.47467 -4.26667,-4.18134 v 19.62667 h -12.71467 v -64.17067 l 12.71467,-2.048 z"
         style="font-style:normal;font-variant:normal;font-weight:bold;font-stretch:normal;font-size:85.33333588px;font-family:Ubuntu;-inkscape-font-specification:Ubuntu;fill:#000000"
         id="path838" />
      <path
         d="m 353.26791,595.36011 q 1.87734,0 3.584,-0.0853 1.70667,-0.0853 2.73067,-0.256 v -9.64267 q -0.768,-0.17066 -2.304,-0.34133 -1.536,-0.17067 -2.816,-0.17067 -1.792,0 -3.41333,0.256 -1.536,0.17067 -2.73067,0.768 -1.19467,0.59734 -1.87733,1.62134 -0.68267,1.024 -0.68267,2.56 0,2.98666 1.96267,4.18133 2.048,1.10933 5.54666,1.10933 z m -1.024,-37.20533 q 5.632,0 9.38667,1.28 3.75467,1.28 5.97333,3.66933 2.304,2.38933 3.24267,5.80267 0.93867,3.41333 0.93867,7.59466 v 26.45334 q -2.73067,0.59733 -7.59467,1.36533 -4.864,0.85334 -11.776,0.85334 -4.352,0 -7.936,-0.768 -3.49867,-0.768 -6.05867,-2.47467 -2.56,-1.792 -3.92533,-4.608 -1.36534,-2.816 -1.36534,-6.912 0,-3.92533 1.536,-6.656 1.62134,-2.73067 4.26667,-4.352 2.64534,-1.62134 6.05867,-2.304 3.41333,-0.768 7.08267,-0.768 2.47466,0 4.352,0.256 1.96266,0.17066 3.15733,0.512 v -1.19467 q 0,-3.24267 -1.96267,-5.20533 -1.96266,-1.96267 -6.82666,-1.96267 -3.24267,0 -6.4,0.512 -3.15734,0.42667 -5.46134,1.28 l -1.62133,-10.24 q 1.10933,-0.34133 2.73067,-0.68267 1.70666,-0.42666 3.66933,-0.68266 1.96267,-0.34134 4.096,-0.512 2.21867,-0.256 4.43733,-0.256 z"
         style="font-style:normal;font-variant:normal;font-weight:bold;font-stretch:normal;font-size:85.33333588px;font-family:Ubuntu;-inkscape-font-specification:Ubuntu;fill:#000000"
         id="path840" />
      <path
         d="m 410.33325,570.61344 q -1.70667,-0.42666 -4.01067,-0.85333 -2.304,-0.512 -4.94933,-0.512 -1.19467,0 -2.90133,0.256 -1.62134,0.17067 -2.47467,0.42667 v 34.304 h -12.71467 v -42.496 q 3.41334,-1.19467 8.02134,-2.21867 4.69333,-1.10933 10.41066,-1.10933 1.024,0 2.47467,0.17066 1.45067,0.0853 2.90133,0.34134 1.45067,0.17066 2.90134,0.512 1.45066,0.256 2.47466,0.68266 z"
         style="font-style:normal;font-variant:normal;font-weight:bold;font-stretch:normal;font-size:85.33333588px;font-family:Ubuntu;-inkscape-font-specification:Ubuntu;fill:#000000"
         id="path842" />
      <path
         d="m 418.85592,548.17078 12.71466,-2.048 v 13.22666 h 15.27467 v 10.58134 h -15.27467 v 15.78667 q 0,4.01066 1.36534,6.4 1.45066,2.38933 5.71733,2.38933 2.048,0 4.18133,-0.34133 2.21867,-0.42667 4.01067,-1.10934 l 1.792,9.89867 q -2.304,0.93867 -5.12,1.62133 -2.816,0.68267 -6.912,0.68267 -5.20533,0 -8.61867,-1.36533 -3.41333,-1.45067 -5.46133,-3.92534 -2.048,-2.56 -2.90133,-6.144 -0.768,-3.584 -0.768,-7.936 z"
         style="font-style:normal;font-variant:normal;font-weight:bold;font-stretch:normal;font-size:85.33333588px;font-family:Ubuntu;-inkscape-font-specification:Ubuntu;fill:#000000"
         id="path844" />
    </g>
    <path
       style="fill:#ffffff;fill-opacity:1;fill-rule:nonzero;stroke:none;stroke-width:0.28614962;stroke-miterlimit:4;stroke-dasharray:none;stroke-opacity:1"
       d="m 18.512046,260.94638 c -1.500315,0 -3.244485,0.0716 -5.233271,0.21498 -1.988785,0.14334 -3.872931,0.39406 -5.6523675,0.75241 v 35.08622 h 8.1643585 v -10.84481 h 2.564183 c 5.442996,0 9.630148,-0.98503 12.560992,-2.95589 2.93084,-2.0067 4.396114,-5.24989 4.396114,-9.72913 0,-4.44339 -1.447969,-7.63235 -4.343921,-9.56737 -2.895948,-1.97087 -7.047984,-2.95641 -12.456088,-2.95641 z m 0.523483,7.14892 c 1.186294,0 2.267815,0.0895 3.244763,0.26872 0.976953,0.14333 1.796868,0.42989 2.459798,0.85989 0.69782,0.39417 1.221536,0.93146 1.570447,1.61231 0.3838,0.68084 0.575676,1.54102 0.575676,2.5802 0,2.15003 -0.715593,3.61915 -2.146123,4.40748 -1.430529,0.78835 -3.558973,1.18288 -6.385141,1.18288 h -2.564183 v -10.75025 c 0.418693,-0.0358 0.907288,-0.0717 1.465543,-0.10749 0.593149,-0.0358 1.186075,-0.0537 1.77922,-0.0537 z"
       id="path945"
       inkscape:connector-curvature="0" />
  </g>
</svg>
