<?xml version="1.0" encoding="UTF-8" standalone="no"?>
<!-- Created with Inkscape (http://www.inkscape.org/) -->

<svg
   width="605.01886mm"
   height="96.583229mm"
   viewBox="0 0 605.01886 96.583229"
   version="1.1"
   id="svg5"
   inkscape:version="1.1.1 (eb90963e84, 2021-10-02)"
   sodipodi:docname="logo-dark-gps.svg"
   xmlns:inkscape="http://www.inkscape.org/namespaces/inkscape"
   xmlns:sodipodi="http://sodipodi.sourceforge.net/DTD/sodipodi-0.dtd"
   xmlns="http://www.w3.org/2000/svg"
   xmlns:svg="http://www.w3.org/2000/svg">
  <sodipodi:namedview
     id="namedview7"
     pagecolor="#ffffff"
     bordercolor="#666666"
     borderopacity="1.0"
     inkscape:pageshadow="2"
     inkscape:pageopacity="0.0"
     inkscape:pagecheckerboard="0"
     inkscape:document-units="mm"
     showgrid="false"
     showguides="false"
     width="120mm"
     inkscape:zoom="0.5"
     inkscape:cx="1211"
     inkscape:cy="35"
     inkscape:window-width="1870"
     inkscape:window-height="1016"
     inkscape:window-x="50"
     inkscape:window-y="27"
     inkscape:window-maximized="1"
     inkscape:current-layer="layer1"
     fit-margin-right="1.9"
     lock-margins="true"
     fit-margin-top="1.9"
     fit-margin-left="1.9"
     fit-margin-bottom="1.9" />
  <defs
     id="defs2">
    <rect
       x="253.74939"
       y="108.38699"
       width="41.715538"
       height="45.352875"
       id="rect88972" />
    <rect
       x="30.802549"
       y="363.95322"
       width="166.14456"
       height="185.2319"
       id="rect6860" />
  </defs>
  <g
     inkscape:label="Layer 1"
     inkscape:groupmode="layer"
     id="layer1"
     transform="translate(108.88826,2.6927528)">
    <rect
       style="opacity:1;fill:#d40000;fill-opacity:1;stroke:none;stroke-width:0.5045;stroke-miterlimit:4;stroke-dasharray:none"
       id="rect2590"
       width="40"
       height="40"
       x="0"
       y="0"
       ry="1.254481"
       rx="1.4619319" />
    <g
       aria-label="W"
       transform="matrix(0.7643815,0,0,0.6049318,-189.84094,-65.350371)"
       id="text88970"
       style="font-size:40px;line-height:1.25;font-family:Dyuthi;-inkscape-font-specification:'Dyuthi, Normal';letter-spacing:0px;white-space:pre;shape-inside:url(#rect88972);fill:#ffffff;fill-opacity:1">
      <path
         d="m 289.00391,116.80469 q 0,0 0.42968,0 1.48438,0 2.34375,1.1914 0.85938,1.19141 0.33203,2.65625 l -6.26953,18.06641 q -0.46875,1.34766 -1.62109,2.20703 -1.15234,0.85938 -2.65625,0.85938 h -0.0781 q -1.58203,0 -2.83203,-0.9961 -1.26953,-0.99609 -1.66015,-2.5 l -2.5586,-10.37109 -2.63672,10.37109 q -0.37109,1.44531 -1.64062,2.5 -1.21094,0.9961 -2.77344,0.9961 h -0.0781 q -1.42578,0 -2.65625,-0.87891 -1.23047,-0.87891 -1.69922,-2.1875 l -6.26953,-18.06641 q -0.48828,-1.38671 0.35156,-2.61718 0.85937,-1.23047 2.36328,-1.23047 h 0.42969 q 0.9375,0 1.67969,0.52734 0.76171,0.50781 1.01562,1.48438 l 2.36328,8.82812 q 2.36328,8.35938 2.34375,8.55469 h 0.11719 q 1.28906,-6.25 3.88672,-16.89453 0.23437,-1.07422 1.09375,-1.77735 0.85937,-0.70312 2.03125,-0.72265 h 0.0781 q 1.13282,0 2.01172,0.70312 0.87891,0.70313 1.15235,1.79688 2.36328,9.41406 3.88671,16.89453 h 0.11719 q 0.0977,-0.46875 2.34375,-8.55469 l 2.32422,-8.82812 q 0.21484,-0.80078 0.97656,-1.40625 0.76172,-0.60547 1.75782,-0.60547 z"
         style="font-size:40px;line-height:1.25;font-family:Dyuthi;-inkscape-font-specification:'Dyuthi, Normal';letter-spacing:0px;white-space:pre;shape-inside:url(#rect88972);fill:#ffffff;fill-opacity:1"
         id="path115808" />
    </g>
    <g
       aria-label="W"
       transform="matrix(-0.7643815,0,0,-0.6049318,229.65937,106.19033)"
       id="text88970-1"
       style="font-size:40px;line-height:1.25;font-family:Dyuthi;-inkscape-font-specification:'Dyuthi, Normal';letter-spacing:0px;white-space:pre;shape-inside:url(#rect88972);fill:#232323;fill-opacity:1">
      <path
         d="m 289.00391,116.80469 q 0,0 0.42968,0 1.48438,0 2.34375,1.1914 0.85938,1.19141 0.33203,2.65625 l -6.26953,18.06641 q -0.46875,1.34766 -1.62109,2.20703 -1.15234,0.85938 -2.65625,0.85938 h -0.0781 q -1.58203,0 -2.83203,-0.9961 -1.26953,-0.99609 -1.66015,-2.5 l -2.5586,-10.37109 -2.63672,10.37109 q -0.37109,1.44531 -1.64062,2.5 -1.21094,0.9961 -2.77344,0.9961 h -0.0781 q -1.42578,0 -2.65625,-0.87891 -1.23047,-0.87891 -1.69922,-2.1875 l -6.26953,-18.06641 q -0.48828,-1.38671 0.35156,-2.61718 0.85937,-1.23047 2.36328,-1.23047 h 0.42969 q 0.9375,0 1.67969,0.52734 0.76171,0.50781 1.01562,1.48438 l 2.36328,8.82812 q 2.36328,8.35938 2.34375,8.55469 h 0.11719 q 1.28906,-6.25 3.88672,-16.89453 0.23437,-1.07422 1.09375,-1.77735 0.85937,-0.70312 2.03125,-0.72265 h 0.0781 q 1.13282,0 2.01172,0.70312 0.87891,0.70313 1.15235,1.79688 2.36328,9.41406 3.88671,16.89453 h 0.11719 q 0.0977,-0.46875 2.34375,-8.55469 l 2.32422,-8.82812 q 0.21484,-0.80078 0.97656,-1.40625 0.76172,-0.60547 1.75782,-0.60547 z"
         style="font-size:40px;line-height:1.25;font-family:Dyuthi;-inkscape-font-specification:'Dyuthi, Normal';letter-spacing:0px;white-space:pre;shape-inside:url(#rect88972);fill:#232323;fill-opacity:1"
         id="path115808-5" />
    </g>
    <rect
       style="fill:#d40000;fill-opacity:1;stroke:none;stroke-width:0.712811;stroke-miterlimit:4;stroke-dasharray:none"
       id="rect2590-3"
       width="79.852173"
       height="40"
       x="-1.541922"
       y="51.990475"
       ry="1.254481"
       rx="1.3048882" />
    <g
       aria-label="W"
       transform="matrix(0.7643815,0,0,0.6049318,-191.38287,-13.359893)"
       id="text88970-2"
       style="font-size:40px;line-height:1.25;font-family:Dyuthi;-inkscape-font-specification:'Dyuthi, Normal';letter-spacing:0px;white-space:pre;shape-inside:url(#rect88972);fill:#ffffff;fill-opacity:1">
      <path
         d="m 289.00391,116.80469 q 0,0 0.42968,0 1.48438,0 2.34375,1.1914 0.85938,1.19141 0.33203,2.65625 l -6.26953,18.06641 q -0.46875,1.34766 -1.62109,2.20703 -1.15234,0.85938 -2.65625,0.85938 h -0.0781 q -1.58203,0 -2.83203,-0.9961 -1.26953,-0.99609 -1.66015,-2.5 l -2.5586,-10.37109 -2.63672,10.37109 q -0.37109,1.44531 -1.64062,2.5 -1.21094,0.9961 -2.77344,0.9961 h -0.0781 q -1.42578,0 -2.65625,-0.87891 -1.23047,-0.87891 -1.69922,-2.1875 l -6.26953,-18.06641 q -0.48828,-1.38671 0.35156,-2.61718 0.85937,-1.23047 2.36328,-1.23047 h 0.42969 q 0.9375,0 1.67969,0.52734 0.76171,0.50781 1.01562,1.48438 l 2.36328,8.82812 q 2.36328,8.35938 2.34375,8.55469 h 0.11719 q 1.28906,-6.25 3.88672,-16.89453 0.23437,-1.07422 1.09375,-1.77735 0.85937,-0.70312 2.03125,-0.72265 h 0.0781 q 1.13282,0 2.01172,0.70312 0.87891,0.70313 1.15235,1.79688 2.36328,9.41406 3.88671,16.89453 h 0.11719 q 0.0977,-0.46875 2.34375,-8.55469 l 2.32422,-8.82812 q 0.21484,-0.80078 0.97656,-1.40625 0.76172,-0.60547 1.75782,-0.60547 z"
         style="font-size:40px;line-height:1.25;font-family:Dyuthi;-inkscape-font-specification:'Dyuthi, Normal';letter-spacing:0px;white-space:pre;shape-inside:url(#rect88972);fill:#ffffff;fill-opacity:1"
         id="path115808-1" />
    </g>
    <g
       aria-label="W"
       transform="matrix(-0.7643815,0,0,-0.6049318,228.11744,158.18081)"
       id="text88970-1-9"
       style="font-size:40px;line-height:1.25;font-family:Dyuthi;-inkscape-font-specification:'Dyuthi, Normal';letter-spacing:0px;white-space:pre;shape-inside:url(#rect88972);fill:#232323;fill-opacity:1">
      <path
         d="m 289.00391,116.80469 q 0,0 0.42968,0 1.48438,0 2.34375,1.1914 0.85938,1.19141 0.33203,2.65625 l -6.26953,18.06641 q -0.46875,1.34766 -1.62109,2.20703 -1.15234,0.85938 -2.65625,0.85938 h -0.0781 q -1.58203,0 -2.83203,-0.9961 -1.26953,-0.99609 -1.66015,-2.5 l -2.5586,-10.37109 -2.63672,10.37109 q -0.37109,1.44531 -1.64062,2.5 -1.21094,0.9961 -2.77344,0.9961 h -0.0781 q -1.42578,0 -2.65625,-0.87891 -1.23047,-0.87891 -1.69922,-2.1875 l -6.26953,-18.06641 q -0.48828,-1.38671 0.35156,-2.61718 0.85937,-1.23047 2.36328,-1.23047 h 0.42969 q 0.9375,0 1.67969,0.52734 0.76171,0.50781 1.01562,1.48438 l 2.36328,8.82812 q 2.36328,8.35938 2.34375,8.55469 h 0.11719 q 1.28906,-6.25 3.88672,-16.89453 0.23437,-1.07422 1.09375,-1.77735 0.85937,-0.70312 2.03125,-0.72265 h 0.0781 q 1.13282,0 2.01172,0.70312 0.87891,0.70313 1.15235,1.79688 2.36328,9.41406 3.88671,16.89453 h 0.11719 q 0.0977,-0.46875 2.34375,-8.55469 l 2.32422,-8.82812 q 0.21484,-0.80078 0.97656,-1.40625 0.76172,-0.60547 1.75782,-0.60547 z"
         style="font-size:40px;line-height:1.25;font-family:Dyuthi;-inkscape-font-specification:'Dyuthi, Normal';letter-spacing:0px;white-space:pre;shape-inside:url(#rect88972);fill:#232323;fill-opacity:1"
         id="path115808-5-7" />
    </g>
    <text
       xml:space="preserve"
       style="font-size:10.5833px;line-height:1.25;font-family:sans-serif;letter-spacing:0px;fill:#232323;fill-opacity:1;stroke-width:0.264583"
       x="32.196579"
       y="69.292252"
       id="text14490-6"><tspan
         sodipodi:role="line"
         id="tspan14488-8"
         style="font-style:normal;font-variant:normal;font-weight:bold;font-stretch:normal;font-size:10.5833px;font-family:sans-serif;-inkscape-font-specification:'sans-serif, Bold';font-variant-ligatures:normal;font-variant-caps:normal;font-variant-numeric:normal;font-variant-east-asian:normal;fill:#232323;fill-opacity:1;stroke-width:0.264583"
         x="32.196579"
         y="69.292252">ord</tspan></text>
    <text
       xml:space="preserve"
       style="font-size:10.5833px;line-height:1.25;font-family:sans-serif;letter-spacing:0px;fill:#232323;fill-opacity:1;stroke-width:0.264583"
       x="31.79114"
       y="82.65226"
       id="text14490-3-2"><tspan
         sodipodi:role="line"
         id="tspan14488-6-0"
         style="font-weight:bold;fill:#232323;fill-opacity:1;stroke-width:0.264583"
         x="31.79114"
         y="82.65226">uncher</tspan></text>
    <rect
       style="fill:#d40000;fill-opacity:1;stroke:none;stroke-width:0.5045;stroke-miterlimit:4;stroke-dasharray:none"
       id="rect2590-38"
       width="40"
       height="40"
       x="-105.44634"
       y="-0.7927528"
       ry="1.254481"
       rx="1.4619319" />
    <g
       aria-label="W"
       transform="matrix(0.7643815,0,0,0.6049318,-295.28728,-64.026454)"
       id="text88970-0"
       style="font-size:40px;line-height:1.25;font-family:Dyuthi;-inkscape-font-specification:'Dyuthi, Normal';letter-spacing:0px;white-space:pre;shape-inside:url(#rect88972);fill:#ffffff;fill-opacity:1">
      <path
         d="m 289.00391,116.80469 q 0,0 0.42968,0 1.48438,0 2.34375,1.1914 0.85938,1.19141 0.33203,2.65625 l -6.26953,18.06641 q -0.46875,1.34766 -1.62109,2.20703 -1.15234,0.85938 -2.65625,0.85938 h -0.0781 q -1.58203,0 -2.83203,-0.9961 -1.26953,-0.99609 -1.66015,-2.5 l -2.5586,-10.37109 -2.63672,10.37109 q -0.37109,1.44531 -1.64062,2.5 -1.21094,0.9961 -2.77344,0.9961 h -0.0781 q -1.42578,0 -2.65625,-0.87891 -1.23047,-0.87891 -1.69922,-2.1875 l -6.26953,-18.06641 q -0.48828,-1.38671 0.35156,-2.61718 0.85937,-1.23047 2.36328,-1.23047 h 0.42969 q 0.9375,0 1.67969,0.52734 0.76171,0.50781 1.01562,1.48438 l 2.36328,8.82812 q 2.36328,8.35938 2.34375,8.55469 h 0.11719 q 1.28906,-6.25 3.88672,-16.89453 0.23437,-1.07422 1.09375,-1.77735 0.85937,-0.70312 2.03125,-0.72265 h 0.0781 q 1.13282,0 2.01172,0.70312 0.87891,0.70313 1.15235,1.79688 2.36328,9.41406 3.88671,16.89453 h 0.11719 q 0.0977,-0.46875 2.34375,-8.55469 l 2.32422,-8.82812 q 0.21484,-0.80078 0.97656,-1.40625 0.76172,-0.60547 1.75782,-0.60547 z"
         style="font-size:40px;line-height:1.25;font-family:Dyuthi;-inkscape-font-specification:'Dyuthi, Normal';letter-spacing:0px;white-space:pre;shape-inside:url(#rect88972);fill:#ffffff;fill-opacity:1"
         id="path115808-9" />
    </g>
    <g
       aria-label="W"
       transform="matrix(-0.7643815,0,0,-0.38184433,124.21303,75.883755)"
       id="text88970-1-2"
       style="font-size:40px;line-height:1.25;font-family:Dyuthi;-inkscape-font-specification:'Dyuthi, Normal';letter-spacing:0px;white-space:pre;shape-inside:url(#rect88972);fill:#232323;fill-opacity:1">
      <path
         d="m 289.00391,116.80469 q 0,0 0.42968,0 1.48438,0 2.34375,1.1914 0.85938,1.19141 0.33203,2.65625 l -6.26953,18.06641 q -0.46875,1.34766 -1.62109,2.20703 -1.15234,0.85938 -2.65625,0.85938 h -0.0781 q -1.58203,0 -2.83203,-0.9961 -1.26953,-0.99609 -1.66015,-2.5 l -2.5586,-10.37109 -2.63672,10.37109 q -0.37109,1.44531 -1.64062,2.5 -1.21094,0.9961 -2.77344,0.9961 h -0.0781 q -1.42578,0 -2.65625,-0.87891 -1.23047,-0.87891 -1.69922,-2.1875 l -6.26953,-18.06641 q -0.48828,-1.38671 0.35156,-2.61718 0.85937,-1.23047 2.36328,-1.23047 h 0.42969 q 0.9375,0 1.67969,0.52734 0.76171,0.50781 1.01562,1.48438 l 2.36328,8.82812 q 2.36328,8.35938 2.34375,8.55469 h 0.11719 q 1.28906,-6.25 3.88672,-16.89453 0.23437,-1.07422 1.09375,-1.77735 0.85937,-0.70312 2.03125,-0.72265 h 0.0781 q 1.13282,0 2.01172,0.70312 0.87891,0.70313 1.15235,1.79688 2.36328,9.41406 3.88671,16.89453 h 0.11719 q 0.0977,-0.46875 2.34375,-8.55469 l 2.32422,-8.82812 q 0.21484,-0.80078 0.97656,-1.40625 0.76172,-0.60547 1.75782,-0.60547 z"
         style="font-size:40px;line-height:1.25;font-family:Dyuthi;-inkscape-font-specification:'Dyuthi, Normal';letter-spacing:0px;white-space:pre;shape-inside:url(#rect88972);fill:#232323;fill-opacity:1"
         id="path115808-5-3" />
    </g>
    <rect
       style="fill:#d40000;fill-opacity:1;stroke:none;stroke-width:0.675062;stroke-miterlimit:4;stroke-dasharray:none"
       id="rect2590-3-1"
       width="79.852173"
       height="35.875557"
       x="-106.98826"
       y="51.197723"
       ry="1.1251302"
       rx="1.3048882" />
    <g
       aria-label="W"
       transform="matrix(0.7643815,0,0,0.6049318,-296.82921,-14.152644)"
       id="text88970-2-8"
       style="font-size:40px;line-height:1.25;font-family:Dyuthi;-inkscape-font-specification:'Dyuthi, Normal';letter-spacing:0px;white-space:pre;shape-inside:url(#rect88972);fill:#ffffff;fill-opacity:1">
      <path
         d="m 289.00391,116.80469 q 0,0 0.42968,0 1.48438,0 2.34375,1.1914 0.85938,1.19141 0.33203,2.65625 l -6.26953,18.06641 q -0.46875,1.34766 -1.62109,2.20703 -1.15234,0.85938 -2.65625,0.85938 h -0.0781 q -1.58203,0 -2.83203,-0.9961 -1.26953,-0.99609 -1.66015,-2.5 l -2.5586,-10.37109 -2.63672,10.37109 q -0.37109,1.44531 -1.64062,2.5 -1.21094,0.9961 -2.77344,0.9961 h -0.0781 q -1.42578,0 -2.65625,-0.87891 -1.23047,-0.87891 -1.69922,-2.1875 l -6.26953,-18.06641 q -0.48828,-1.38671 0.35156,-2.61718 0.85937,-1.23047 2.36328,-1.23047 h 0.42969 q 0.9375,0 1.67969,0.52734 0.76171,0.50781 1.01562,1.48438 l 2.36328,8.82812 q 2.36328,8.35938 2.34375,8.55469 h 0.11719 q 1.28906,-6.25 3.88672,-16.89453 0.23437,-1.07422 1.09375,-1.77735 0.85937,-0.70312 2.03125,-0.72265 h 0.0781 q 1.13282,0 2.01172,0.70312 0.87891,0.70313 1.15235,1.79688 2.36328,9.41406 3.88671,16.89453 h 0.11719 q 0.0977,-0.46875 2.34375,-8.55469 l 2.32422,-8.82812 q 0.21484,-0.80078 0.97656,-1.40625 0.76172,-0.60547 1.75782,-0.60547 z"
         style="font-size:40px;line-height:1.25;font-family:Dyuthi;-inkscape-font-specification:'Dyuthi, Normal';letter-spacing:0px;white-space:pre;shape-inside:url(#rect88972);fill:#ffffff;fill-opacity:1"
         id="path115808-1-7" />
    </g>
    <text
       xml:space="preserve"
       style="font-size:10.5833px;line-height:1.25;font-family:sans-serif;letter-spacing:0px;fill:#232323;fill-opacity:1;stroke-width:0.264583"
       x="-73.249763"
       y="68.499504"
       id="text14490-6-6"><tspan
         sodipodi:role="line"
         id="tspan14488-8-3"
         style="font-style:normal;font-variant:normal;font-weight:bold;font-stretch:normal;font-size:10.5833px;font-family:sans-serif;-inkscape-font-specification:'sans-serif, Bold';font-variant-ligatures:normal;font-variant-caps:normal;font-variant-numeric:normal;font-variant-east-asian:normal;fill:#232323;fill-opacity:1;stroke-width:0.264583"
         x="-73.249763"
         y="68.499504">ord</tspan></text>
    <text
       xml:space="preserve"
       style="font-size:10.5833px;line-height:1.25;font-family:sans-serif;letter-spacing:0px;fill:#232323;fill-opacity:1;stroke-width:0.264583"
       x="-73.65519"
       y="78.155342"
       id="text14490-3-2-8"><tspan
         sodipodi:role="line"
         id="tspan14488-6-0-5"
         style="font-weight:bold;fill:#232323;fill-opacity:1;stroke-width:0.264583"
         x="-73.65519"
         y="78.155342">uncher</tspan></text>
    <rect
       style="fill:#ff5400;fill-opacity:1;stroke:none;stroke-width:0.5045;stroke-miterlimit:4;stroke-dasharray:none"
       id="rect2590-6"
       width="40"
       height="40"
       x="95.976242"
       y="-0.27024314"
       ry="1.254481"
       rx="1.4619319" />
    <g
       aria-label="W"
       transform="matrix(0.7643815,0,0,0.6049318,-93.864686,-65.620611)"
       id="text88970-4"
       style="font-size:40px;line-height:1.25;font-family:Dyuthi;-inkscape-font-specification:'Dyuthi, Normal';letter-spacing:0px;white-space:pre;shape-inside:url(#rect88972);fill:#ffffff;fill-opacity:1">
      <path
         d="m 289.00391,116.80469 q 0,0 0.42968,0 1.48438,0 2.34375,1.1914 0.85938,1.19141 0.33203,2.65625 l -6.26953,18.06641 q -0.46875,1.34766 -1.62109,2.20703 -1.15234,0.85938 -2.65625,0.85938 h -0.0781 q -1.58203,0 -2.83203,-0.9961 -1.26953,-0.99609 -1.66015,-2.5 l -2.5586,-10.37109 -2.63672,10.37109 q -0.37109,1.44531 -1.64062,2.5 -1.21094,0.9961 -2.77344,0.9961 h -0.0781 q -1.42578,0 -2.65625,-0.87891 -1.23047,-0.87891 -1.69922,-2.1875 l -6.26953,-18.06641 q -0.48828,-1.38671 0.35156,-2.61718 0.85937,-1.23047 2.36328,-1.23047 h 0.42969 q 0.9375,0 1.67969,0.52734 0.76171,0.50781 1.01562,1.48438 l 2.36328,8.82812 q 2.36328,8.35938 2.34375,8.55469 h 0.11719 q 1.28906,-6.25 3.88672,-16.89453 0.23437,-1.07422 1.09375,-1.77735 0.85937,-0.70312 2.03125,-0.72265 h 0.0781 q 1.13282,0 2.01172,0.70312 0.87891,0.70313 1.15235,1.79688 2.36328,9.41406 3.88671,16.89453 h 0.11719 q 0.0977,-0.46875 2.34375,-8.55469 l 2.32422,-8.82812 q 0.21484,-0.80078 0.97656,-1.40625 0.76172,-0.60547 1.75782,-0.60547 z"
         style="font-size:40px;line-height:1.25;font-family:Dyuthi;-inkscape-font-specification:'Dyuthi, Normal';letter-spacing:0px;white-space:pre;shape-inside:url(#rect88972);fill:#ffffff;fill-opacity:1"
         id="path115808-3" />
    </g>
    <g
       aria-label="W"
       transform="matrix(-0.7643815,0,0,-0.6049318,325.63563,105.92005)"
       id="text88970-1-3"
       style="font-size:40px;line-height:1.25;font-family:Dyuthi;-inkscape-font-specification:'Dyuthi, Normal';letter-spacing:0px;white-space:pre;shape-inside:url(#rect88972);fill:#232323;fill-opacity:1">
      <path
         d="m 289.00391,116.80469 q 0,0 0.42968,0 1.48438,0 2.34375,1.1914 0.85938,1.19141 0.33203,2.65625 l -6.26953,18.06641 q -0.46875,1.34766 -1.62109,2.20703 -1.15234,0.85938 -2.65625,0.85938 h -0.0781 q -1.58203,0 -2.83203,-0.9961 -1.26953,-0.99609 -1.66015,-2.5 l -2.5586,-10.37109 -2.63672,10.37109 q -0.37109,1.44531 -1.64062,2.5 -1.21094,0.9961 -2.77344,0.9961 h -0.0781 q -1.42578,0 -2.65625,-0.87891 -1.23047,-0.87891 -1.69922,-2.1875 l -6.26953,-18.06641 q -0.48828,-1.38671 0.35156,-2.61718 0.85937,-1.23047 2.36328,-1.23047 h 0.42969 q 0.9375,0 1.67969,0.52734 0.76171,0.50781 1.01562,1.48438 l 2.36328,8.82812 q 2.36328,8.35938 2.34375,8.55469 h 0.11719 q 1.28906,-6.25 3.88672,-16.89453 0.23437,-1.07422 1.09375,-1.77735 0.85937,-0.70312 2.03125,-0.72265 h 0.0781 q 1.13282,0 2.01172,0.70312 0.87891,0.70313 1.15235,1.79688 2.36328,9.41406 3.88671,16.89453 h 0.11719 q 0.0977,-0.46875 2.34375,-8.55469 l 2.32422,-8.82812 q 0.21484,-0.80078 0.97656,-1.40625 0.76172,-0.60547 1.75782,-0.60547 z"
         style="font-size:40px;line-height:1.25;font-family:Dyuthi;-inkscape-font-specification:'Dyuthi, Normal';letter-spacing:0px;white-space:pre;shape-inside:url(#rect88972);fill:#232323;fill-opacity:1"
         id="path115808-5-6" />
    </g>
    <rect
       style="fill:#ff5400;fill-opacity:1;stroke:none;stroke-width:0.712811;stroke-miterlimit:4;stroke-dasharray:none"
       id="rect2590-3-9"
       width="79.852173"
       height="40"
       x="94.434326"
       y="51.720264"
       ry="1.254481"
       rx="1.3048882" />
    <g
       aria-label="W"
       transform="matrix(0.7643815,0,0,0.6049318,-95.406613,-13.630132)"
       id="text88970-2-0"
       style="font-size:40px;line-height:1.25;font-family:Dyuthi;-inkscape-font-specification:'Dyuthi, Normal';letter-spacing:0px;white-space:pre;shape-inside:url(#rect88972);fill:#ffffff;fill-opacity:1">
      <path
         d="m 289.00391,116.80469 q 0,0 0.42968,0 1.48438,0 2.34375,1.1914 0.85938,1.19141 0.33203,2.65625 l -6.26953,18.06641 q -0.46875,1.34766 -1.62109,2.20703 -1.15234,0.85938 -2.65625,0.85938 h -0.0781 q -1.58203,0 -2.83203,-0.9961 -1.26953,-0.99609 -1.66015,-2.5 l -2.5586,-10.37109 -2.63672,10.37109 q -0.37109,1.44531 -1.64062,2.5 -1.21094,0.9961 -2.77344,0.9961 h -0.0781 q -1.42578,0 -2.65625,-0.87891 -1.23047,-0.87891 -1.69922,-2.1875 l -6.26953,-18.06641 q -0.48828,-1.38671 0.35156,-2.61718 0.85937,-1.23047 2.36328,-1.23047 h 0.42969 q 0.9375,0 1.67969,0.52734 0.76171,0.50781 1.01562,1.48438 l 2.36328,8.82812 q 2.36328,8.35938 2.34375,8.55469 h 0.11719 q 1.28906,-6.25 3.88672,-16.89453 0.23437,-1.07422 1.09375,-1.77735 0.85937,-0.70312 2.03125,-0.72265 h 0.0781 q 1.13282,0 2.01172,0.70312 0.87891,0.70313 1.15235,1.79688 2.36328,9.41406 3.88671,16.89453 h 0.11719 q 0.0977,-0.46875 2.34375,-8.55469 l 2.32422,-8.82812 q 0.21484,-0.80078 0.97656,-1.40625 0.76172,-0.60547 1.75782,-0.60547 z"
         style="font-size:40px;line-height:1.25;font-family:Dyuthi;-inkscape-font-specification:'Dyuthi, Normal';letter-spacing:0px;white-space:pre;shape-inside:url(#rect88972);fill:#ffffff;fill-opacity:1"
         id="path115808-1-4" />
    </g>
    <g
       aria-label="W"
       transform="matrix(-0.7643815,0,0,-0.6049318,324.0937,157.91053)"
       id="text88970-1-9-8"
       style="font-size:40px;line-height:1.25;font-family:Dyuthi;-inkscape-font-specification:'Dyuthi, Normal';letter-spacing:0px;white-space:pre;shape-inside:url(#rect88972);fill:#232323;fill-opacity:1">
      <path
         d="m 289.00391,116.80469 q 0,0 0.42968,0 1.48438,0 2.34375,1.1914 0.85938,1.19141 0.33203,2.65625 l -6.26953,18.06641 q -0.46875,1.34766 -1.62109,2.20703 -1.15234,0.85938 -2.65625,0.85938 h -0.0781 q -1.58203,0 -2.83203,-0.9961 -1.26953,-0.99609 -1.66015,-2.5 l -2.5586,-10.37109 -2.63672,10.37109 q -0.37109,1.44531 -1.64062,2.5 -1.21094,0.9961 -2.77344,0.9961 h -0.0781 q -1.42578,0 -2.65625,-0.87891 -1.23047,-0.87891 -1.69922,-2.1875 l -6.26953,-18.06641 q -0.48828,-1.38671 0.35156,-2.61718 0.85937,-1.23047 2.36328,-1.23047 h 0.42969 q 0.9375,0 1.67969,0.52734 0.76171,0.50781 1.01562,1.48438 l 2.36328,8.82812 q 2.36328,8.35938 2.34375,8.55469 h 0.11719 q 1.28906,-6.25 3.88672,-16.89453 0.23437,-1.07422 1.09375,-1.77735 0.85937,-0.70312 2.03125,-0.72265 h 0.0781 q 1.13282,0 2.01172,0.70312 0.87891,0.70313 1.15235,1.79688 2.36328,9.41406 3.88671,16.89453 h 0.11719 q 0.0977,-0.46875 2.34375,-8.55469 l 2.32422,-8.82812 q 0.21484,-0.80078 0.97656,-1.40625 0.76172,-0.60547 1.75782,-0.60547 z"
         style="font-size:40px;line-height:1.25;font-family:Dyuthi;-inkscape-font-specification:'Dyuthi, Normal';letter-spacing:0px;white-space:pre;shape-inside:url(#rect88972);fill:#232323;fill-opacity:1"
         id="path115808-5-7-5" />
    </g>
    <text
       xml:space="preserve"
       style="font-size:10.5833px;line-height:1.25;font-family:sans-serif;letter-spacing:0px;fill:#232323;fill-opacity:1;stroke-width:0.264583"
       x="128.17282"
       y="69.022018"
       id="text14490-6-1"><tspan
         sodipodi:role="line"
         id="tspan14488-8-2"
         style="font-style:normal;font-variant:normal;font-weight:bold;font-stretch:normal;font-size:10.5833px;font-family:sans-serif;-inkscape-font-specification:'sans-serif, Bold';font-variant-ligatures:normal;font-variant-caps:normal;font-variant-numeric:normal;font-variant-east-asian:normal;fill:#232323;fill-opacity:1;stroke-width:0.264583"
         x="128.17282"
         y="69.022018">ord</tspan></text>
    <text
       xml:space="preserve"
       style="font-size:10.5833px;line-height:1.25;font-family:sans-serif;letter-spacing:0px;fill:#232323;fill-opacity:1;stroke-width:0.264583"
       x="127.7674"
       y="82.382027"
       id="text14490-3-2-9"><tspan
         sodipodi:role="line"
         id="tspan14488-6-0-7"
         style="font-weight:bold;fill:#232323;fill-opacity:1;stroke-width:0.264583"
         x="127.7674"
         y="82.382027">uncher</tspan></text>
    <g
       aria-label="W"
       transform="matrix(-0.7643815,0,0,-0.38184433,122.78652,125.78722)"
       id="text88970-1-2-5"
       style="font-size:40px;line-height:1.25;font-family:Dyuthi;-inkscape-font-specification:'Dyuthi, Normal';letter-spacing:0px;white-space:pre;shape-inside:url(#rect88972);fill:#232323;fill-opacity:1">
      <path
         d="m 289.00391,116.80469 q 0,0 0.42968,0 1.48438,0 2.34375,1.1914 0.85938,1.19141 0.33203,2.65625 l -6.26953,18.06641 q -0.46875,1.34766 -1.62109,2.20703 -1.15234,0.85938 -2.65625,0.85938 h -0.0781 q -1.58203,0 -2.83203,-0.9961 -1.26953,-0.99609 -1.66015,-2.5 l -2.5586,-10.37109 -2.63672,10.37109 q -0.37109,1.44531 -1.64062,2.5 -1.21094,0.9961 -2.77344,0.9961 h -0.0781 q -1.42578,0 -2.65625,-0.87891 -1.23047,-0.87891 -1.69922,-2.1875 l -6.26953,-18.06641 q -0.48828,-1.38671 0.35156,-2.61718 0.85937,-1.23047 2.36328,-1.23047 h 0.42969 q 0.9375,0 1.67969,0.52734 0.76171,0.50781 1.01562,1.48438 l 2.36328,8.82812 q 2.36328,8.35938 2.34375,8.55469 h 0.11719 q 1.28906,-6.25 3.88672,-16.89453 0.23437,-1.07422 1.09375,-1.77735 0.85937,-0.70312 2.03125,-0.72265 h 0.0781 q 1.13282,0 2.01172,0.70312 0.87891,0.70313 1.15235,1.79688 2.36328,9.41406 3.88671,16.89453 h 0.11719 q 0.0977,-0.46875 2.34375,-8.55469 l 2.32422,-8.82812 q 0.21484,-0.80078 0.97656,-1.40625 0.76172,-0.60547 1.75782,-0.60547 z"
         style="font-size:40px;line-height:1.25;font-family:Dyuthi;-inkscape-font-specification:'Dyuthi, Normal';letter-spacing:0px;white-space:pre;shape-inside:url(#rect88972);fill:#232323;fill-opacity:1"
         id="path115808-5-3-0" />
    </g>
    <rect
       style="fill:#ff5400;fill-opacity:1;stroke:none;stroke-width:0.5045;stroke-miterlimit:4;stroke-dasharray:none"
       id="rect2590-38-1"
       width="40"
       height="40"
       x="211.09261"
       y="2.7118833"
       ry="1.254481"
       rx="1.4619319" />
    <g
       aria-label="W"
       transform="matrix(0.7643815,0,0,0.6049318,21.251668,-60.521812)"
       id="text88970-0-2"
       style="font-size:40px;line-height:1.25;font-family:Dyuthi;-inkscape-font-specification:'Dyuthi, Normal';letter-spacing:0px;white-space:pre;shape-inside:url(#rect88972);fill:#ffffff;fill-opacity:1">
      <path
         d="m 289.00391,116.80469 q 0,0 0.42968,0 1.48438,0 2.34375,1.1914 0.85938,1.19141 0.33203,2.65625 l -6.26953,18.06641 q -0.46875,1.34766 -1.62109,2.20703 -1.15234,0.85938 -2.65625,0.85938 h -0.0781 q -1.58203,0 -2.83203,-0.9961 -1.26953,-0.99609 -1.66015,-2.5 l -2.5586,-10.37109 -2.63672,10.37109 q -0.37109,1.44531 -1.64062,2.5 -1.21094,0.9961 -2.77344,0.9961 h -0.0781 q -1.42578,0 -2.65625,-0.87891 -1.23047,-0.87891 -1.69922,-2.1875 l -6.26953,-18.06641 q -0.48828,-1.38671 0.35156,-2.61718 0.85937,-1.23047 2.36328,-1.23047 h 0.42969 q 0.9375,0 1.67969,0.52734 0.76171,0.50781 1.01562,1.48438 l 2.36328,8.82812 q 2.36328,8.35938 2.34375,8.55469 h 0.11719 q 1.28906,-6.25 3.88672,-16.89453 0.23437,-1.07422 1.09375,-1.77735 0.85937,-0.70312 2.03125,-0.72265 h 0.0781 q 1.13282,0 2.01172,0.70312 0.87891,0.70313 1.15235,1.79688 2.36328,9.41406 3.88671,16.89453 h 0.11719 q 0.0977,-0.46875 2.34375,-8.55469 l 2.32422,-8.82812 q 0.21484,-0.80078 0.97656,-1.40625 0.76172,-0.60547 1.75782,-0.60547 z"
         style="font-size:40px;line-height:1.25;font-family:Dyuthi;-inkscape-font-specification:'Dyuthi, Normal';letter-spacing:0px;white-space:pre;shape-inside:url(#rect88972);fill:#ffffff;fill-opacity:1"
         id="path115808-9-6" />
    </g>
    <g
       aria-label="W"
       transform="matrix(-0.7643815,0,0,-0.38184433,440.75198,79.388392)"
       id="text88970-1-2-4"
       style="font-size:40px;line-height:1.25;font-family:Dyuthi;-inkscape-font-specification:'Dyuthi, Normal';letter-spacing:0px;white-space:pre;shape-inside:url(#rect88972);fill:#232323;fill-opacity:1">
      <path
         d="m 289.00391,116.80469 q 0,0 0.42968,0 1.48438,0 2.34375,1.1914 0.85938,1.19141 0.33203,2.65625 l -6.26953,18.06641 q -0.46875,1.34766 -1.62109,2.20703 -1.15234,0.85938 -2.65625,0.85938 h -0.0781 q -1.58203,0 -2.83203,-0.9961 -1.26953,-0.99609 -1.66015,-2.5 l -2.5586,-10.37109 -2.63672,10.37109 q -0.37109,1.44531 -1.64062,2.5 -1.21094,0.9961 -2.77344,0.9961 h -0.0781 q -1.42578,0 -2.65625,-0.87891 -1.23047,-0.87891 -1.69922,-2.1875 l -6.26953,-18.06641 q -0.48828,-1.38671 0.35156,-2.61718 0.85937,-1.23047 2.36328,-1.23047 h 0.42969 q 0.9375,0 1.67969,0.52734 0.76171,0.50781 1.01562,1.48438 l 2.36328,8.82812 q 2.36328,8.35938 2.34375,8.55469 h 0.11719 q 1.28906,-6.25 3.88672,-16.89453 0.23437,-1.07422 1.09375,-1.77735 0.85937,-0.70312 2.03125,-0.72265 h 0.0781 q 1.13282,0 2.01172,0.70312 0.87891,0.70313 1.15235,1.79688 2.36328,9.41406 3.88671,16.89453 h 0.11719 q 0.0977,-0.46875 2.34375,-8.55469 l 2.32422,-8.82812 q 0.21484,-0.80078 0.97656,-1.40625 0.76172,-0.60547 1.75782,-0.60547 z"
         style="font-size:40px;line-height:1.25;font-family:Dyuthi;-inkscape-font-specification:'Dyuthi, Normal';letter-spacing:0px;white-space:pre;shape-inside:url(#rect88972);fill:#232323;fill-opacity:1"
         id="path115808-5-3-8" />
    </g>
    <rect
       style="fill:#ff5400;fill-opacity:1;stroke:none;stroke-width:0.675062;stroke-miterlimit:4;stroke-dasharray:none"
       id="rect2590-3-1-5"
       width="79.852173"
       height="35.875557"
       x="209.55069"
       y="54.702362"
       ry="1.1251302"
       rx="1.3048882" />
    <g
       aria-label="W"
       transform="matrix(0.7643815,0,0,0.6049318,19.709738,-10.647998)"
       id="text88970-2-8-6"
       style="font-size:40px;line-height:1.25;font-family:Dyuthi;-inkscape-font-specification:'Dyuthi, Normal';letter-spacing:0px;white-space:pre;shape-inside:url(#rect88972);fill:#ffffff;fill-opacity:1">
      <path
         d="m 289.00391,116.80469 q 0,0 0.42968,0 1.48438,0 2.34375,1.1914 0.85938,1.19141 0.33203,2.65625 l -6.26953,18.06641 q -0.46875,1.34766 -1.62109,2.20703 -1.15234,0.85938 -2.65625,0.85938 h -0.0781 q -1.58203,0 -2.83203,-0.9961 -1.26953,-0.99609 -1.66015,-2.5 l -2.5586,-10.37109 -2.63672,10.37109 q -0.37109,1.44531 -1.64062,2.5 -1.21094,0.9961 -2.77344,0.9961 h -0.0781 q -1.42578,0 -2.65625,-0.87891 -1.23047,-0.87891 -1.69922,-2.1875 l -6.26953,-18.06641 q -0.48828,-1.38671 0.35156,-2.61718 0.85937,-1.23047 2.36328,-1.23047 h 0.42969 q 0.9375,0 1.67969,0.52734 0.76171,0.50781 1.01562,1.48438 l 2.36328,8.82812 q 2.36328,8.35938 2.34375,8.55469 h 0.11719 q 1.28906,-6.25 3.88672,-16.89453 0.23437,-1.07422 1.09375,-1.77735 0.85937,-0.70312 2.03125,-0.72265 h 0.0781 q 1.13282,0 2.01172,0.70312 0.87891,0.70313 1.15235,1.79688 2.36328,9.41406 3.88671,16.89453 h 0.11719 q 0.0977,-0.46875 2.34375,-8.55469 l 2.32422,-8.82812 q 0.21484,-0.80078 0.97656,-1.40625 0.76172,-0.60547 1.75782,-0.60547 z"
         style="font-size:40px;line-height:1.25;font-family:Dyuthi;-inkscape-font-specification:'Dyuthi, Normal';letter-spacing:0px;white-space:pre;shape-inside:url(#rect88972);fill:#ffffff;fill-opacity:1"
         id="path115808-1-7-2" />
    </g>
    <text
       xml:space="preserve"
       style="font-size:10.5833px;line-height:1.25;font-family:sans-serif;letter-spacing:0px;fill:#232323;fill-opacity:1;stroke-width:0.264583"
       x="243.28918"
       y="72.00415"
       id="text14490-6-6-5"><tspan
         sodipodi:role="line"
         id="tspan14488-8-3-2"
         style="font-style:normal;font-variant:normal;font-weight:bold;font-stretch:normal;font-size:10.5833px;font-family:sans-serif;-inkscape-font-specification:'sans-serif, Bold';font-variant-ligatures:normal;font-variant-caps:normal;font-variant-numeric:normal;font-variant-east-asian:normal;fill:#232323;fill-opacity:1;stroke-width:0.264583"
         x="243.28918"
         y="72.00415">ord</tspan></text>
    <text
       xml:space="preserve"
       style="font-size:10.5833px;line-height:1.25;font-family:sans-serif;letter-spacing:0px;fill:#232323;fill-opacity:1;stroke-width:0.264583"
       x="242.88376"
       y="81.659988"
       id="text14490-3-2-8-6"><tspan
         sodipodi:role="line"
         id="tspan14488-6-0-5-9"
         style="font-weight:bold;fill:#232323;fill-opacity:1;stroke-width:0.264583"
         x="242.88376"
         y="81.659988">uncher</tspan></text>
    <g
       aria-label="W"
       transform="matrix(-0.7643815,0,0,-0.38184433,439.32547,129.29186)"
       id="text88970-1-2-5-1"
       style="font-size:40px;line-height:1.25;font-family:Dyuthi;-inkscape-font-specification:'Dyuthi, Normal';letter-spacing:0px;white-space:pre;shape-inside:url(#rect88972);fill:#232323;fill-opacity:1">
      <path
         d="m 289.00391,116.80469 q 0,0 0.42968,0 1.48438,0 2.34375,1.1914 0.85938,1.19141 0.33203,2.65625 l -6.26953,18.06641 q -0.46875,1.34766 -1.62109,2.20703 -1.15234,0.85938 -2.65625,0.85938 h -0.0781 q -1.58203,0 -2.83203,-0.9961 -1.26953,-0.99609 -1.66015,-2.5 l -2.5586,-10.37109 -2.63672,10.37109 q -0.37109,1.44531 -1.64062,2.5 -1.21094,0.9961 -2.77344,0.9961 h -0.0781 q -1.42578,0 -2.65625,-0.87891 -1.23047,-0.87891 -1.69922,-2.1875 l -6.26953,-18.06641 q -0.48828,-1.38671 0.35156,-2.61718 0.85937,-1.23047 2.36328,-1.23047 h 0.42969 q 0.9375,0 1.67969,0.52734 0.76171,0.50781 1.01562,1.48438 l 2.36328,8.82812 q 2.36328,8.35938 2.34375,8.55469 h 0.11719 q 1.28906,-6.25 3.88672,-16.89453 0.23437,-1.07422 1.09375,-1.77735 0.85937,-0.70312 2.03125,-0.72265 h 0.0781 q 1.13282,0 2.01172,0.70312 0.87891,0.70313 1.15235,1.79688 2.36328,9.41406 3.88671,16.89453 h 0.11719 q 0.0977,-0.46875 2.34375,-8.55469 l 2.32422,-8.82812 q 0.21484,-0.80078 0.97656,-1.40625 0.76172,-0.60547 1.75782,-0.60547 z"
         style="font-size:40px;line-height:1.25;font-family:Dyuthi;-inkscape-font-specification:'Dyuthi, Normal';letter-spacing:0px;white-space:pre;shape-inside:url(#rect88972);fill:#232323;fill-opacity:1"
         id="path115808-5-3-0-3" />
    </g>
    <rect
       style="fill:#ff5400;fill-opacity:1;stroke:none;stroke-width:0.5045;stroke-miterlimit:4;stroke-dasharray:none"
       id="rect2590-38-1-9"
       width="40"
       height="40"
       x="416.57123"
       y="2.8773179"
       ry="1.254481"
       rx="1.4619319" />
    <g
       aria-label="W"
       transform="matrix(0.7643815,0,0,0.6049318,226.73031,-60.356379)"
       id="text88970-0-2-0"
       style="font-size:40px;line-height:1.25;font-family:Dyuthi;-inkscape-font-specification:'Dyuthi, Normal';letter-spacing:0px;white-space:pre;shape-inside:url(#rect88972);fill:#ffffff;fill-opacity:1">
      <path
         d="m 289.00391,116.80469 q 0,0 0.42968,0 1.48438,0 2.34375,1.1914 0.85938,1.19141 0.33203,2.65625 l -6.26953,18.06641 q -0.46875,1.34766 -1.62109,2.20703 -1.15234,0.85938 -2.65625,0.85938 h -0.0781 q -1.58203,0 -2.83203,-0.9961 -1.26953,-0.99609 -1.66015,-2.5 l -2.5586,-10.37109 -2.63672,10.37109 q -0.37109,1.44531 -1.64062,2.5 -1.21094,0.9961 -2.77344,0.9961 h -0.0781 q -1.42578,0 -2.65625,-0.87891 -1.23047,-0.87891 -1.69922,-2.1875 l -6.26953,-18.06641 q -0.48828,-1.38671 0.35156,-2.61718 0.85937,-1.23047 2.36328,-1.23047 h 0.42969 q 0.9375,0 1.67969,0.52734 0.76171,0.50781 1.01562,1.48438 l 2.36328,8.82812 q 2.36328,8.35938 2.34375,8.55469 h 0.11719 q 1.28906,-6.25 3.88672,-16.89453 0.23437,-1.07422 1.09375,-1.77735 0.85937,-0.70312 2.03125,-0.72265 h 0.0781 q 1.13282,0 2.01172,0.70312 0.87891,0.70313 1.15235,1.79688 2.36328,9.41406 3.88671,16.89453 h 0.11719 q 0.0977,-0.46875 2.34375,-8.55469 l 2.32422,-8.82812 q 0.21484,-0.80078 0.97656,-1.40625 0.76172,-0.60547 1.75782,-0.60547 z"
         style="font-size:40px;line-height:1.25;font-family:Dyuthi;-inkscape-font-specification:'Dyuthi, Normal';letter-spacing:0px;white-space:pre;shape-inside:url(#rect88972);fill:#ffffff;fill-opacity:1"
         id="path115808-9-6-0" />
    </g>
    <g
       aria-label="W"
       transform="matrix(-0.7643815,0,0,-0.38184433,646.23062,79.553828)"
       id="text88970-1-2-4-22"
       style="font-size:40px;line-height:1.25;font-family:Dyuthi;-inkscape-font-specification:'Dyuthi, Normal';letter-spacing:0px;white-space:pre;shape-inside:url(#rect88972);fill:#232323;fill-opacity:1">
      <path
         d="m 289.00391,116.80469 q 0,0 0.42968,0 1.48438,0 2.34375,1.1914 0.85938,1.19141 0.33203,2.65625 l -6.26953,18.06641 q -0.46875,1.34766 -1.62109,2.20703 -1.15234,0.85938 -2.65625,0.85938 h -0.0781 q -1.58203,0 -2.83203,-0.9961 -1.26953,-0.99609 -1.66015,-2.5 l -2.5586,-10.37109 -2.63672,10.37109 q -0.37109,1.44531 -1.64062,2.5 -1.21094,0.9961 -2.77344,0.9961 h -0.0781 q -1.42578,0 -2.65625,-0.87891 -1.23047,-0.87891 -1.69922,-2.1875 l -6.26953,-18.06641 q -0.48828,-1.38671 0.35156,-2.61718 0.85937,-1.23047 2.36328,-1.23047 h 0.42969 q 0.9375,0 1.67969,0.52734 0.76171,0.50781 1.01562,1.48438 l 2.36328,8.82812 q 2.36328,8.35938 2.34375,8.55469 h 0.11719 q 1.28906,-6.25 3.88672,-16.89453 0.23437,-1.07422 1.09375,-1.77735 0.85937,-0.70312 2.03125,-0.72265 h 0.0781 q 1.13282,0 2.01172,0.70312 0.87891,0.70313 1.15235,1.79688 2.36328,9.41406 3.88671,16.89453 h 0.11719 q 0.0977,-0.46875 2.34375,-8.55469 l 2.32422,-8.82812 q 0.21484,-0.80078 0.97656,-1.40625 0.76172,-0.60547 1.75782,-0.60547 z"
         style="font-size:40px;line-height:1.25;font-family:Dyuthi;-inkscape-font-specification:'Dyuthi, Normal';letter-spacing:0px;white-space:pre;shape-inside:url(#rect88972);fill:#232323;fill-opacity:1"
         id="path115808-5-3-8-69" />
    </g>
    <rect
       style="fill:#ff5400;fill-opacity:1;stroke:none;stroke-width:0.672305;stroke-miterlimit:4;stroke-dasharray:none"
       id="rect2590-3-1-5-0"
       width="79.201279"
       height="35.875557"
       x="415.02933"
       y="54.867798"
       ry="1.1251302"
       rx="1.2942518" />
    <g
       aria-label="W"
       transform="matrix(0.7643815,0,0,0.6049318,225.18838,-10.482565)"
       id="text88970-2-8-6-3"
       style="font-size:40px;line-height:1.25;font-family:Dyuthi;-inkscape-font-specification:'Dyuthi, Normal';letter-spacing:0px;white-space:pre;shape-inside:url(#rect88972);fill:#ffffff;fill-opacity:1">
      <path
         d="m 289.00391,116.80469 q 0,0 0.42968,0 1.48438,0 2.34375,1.1914 0.85938,1.19141 0.33203,2.65625 l -6.26953,18.06641 q -0.46875,1.34766 -1.62109,2.20703 -1.15234,0.85938 -2.65625,0.85938 h -0.0781 q -1.58203,0 -2.83203,-0.9961 -1.26953,-0.99609 -1.66015,-2.5 l -2.5586,-10.37109 -2.63672,10.37109 q -0.37109,1.44531 -1.64062,2.5 -1.21094,0.9961 -2.77344,0.9961 h -0.0781 q -1.42578,0 -2.65625,-0.87891 -1.23047,-0.87891 -1.69922,-2.1875 l -6.26953,-18.06641 q -0.48828,-1.38671 0.35156,-2.61718 0.85937,-1.23047 2.36328,-1.23047 h 0.42969 q 0.9375,0 1.67969,0.52734 0.76171,0.50781 1.01562,1.48438 l 2.36328,8.82812 q 2.36328,8.35938 2.34375,8.55469 h 0.11719 q 1.28906,-6.25 3.88672,-16.89453 0.23437,-1.07422 1.09375,-1.77735 0.85937,-0.70312 2.03125,-0.72265 h 0.0781 q 1.13282,0 2.01172,0.70312 0.87891,0.70313 1.15235,1.79688 2.36328,9.41406 3.88671,16.89453 h 0.11719 q 0.0977,-0.46875 2.34375,-8.55469 l 2.32422,-8.82812 q 0.21484,-0.80078 0.97656,-1.40625 0.76172,-0.60547 1.75782,-0.60547 z"
         style="font-size:40px;line-height:1.25;font-family:Dyuthi;-inkscape-font-specification:'Dyuthi, Normal';letter-spacing:0px;white-space:pre;shape-inside:url(#rect88972);fill:#ffffff;fill-opacity:1"
         id="path115808-1-7-2-5" />
    </g>
    <text
       xml:space="preserve"
       style="font-size:10.5833px;line-height:1.25;font-family:sans-serif;letter-spacing:0px;fill:#ffffff;fill-opacity:1;stroke-width:0.264583"
       x="447.1803"
       y="74.418549"
       id="text14490-6-6-5-5"><tspan
         sodipodi:role="line"
         id="tspan14488-8-3-2-8"
         style="font-style:normal;font-variant:normal;font-weight:bold;font-stretch:normal;font-size:10.5833px;font-family:sans-serif;-inkscape-font-specification:'sans-serif, Bold';font-variant-ligatures:normal;font-variant-caps:normal;font-variant-numeric:normal;font-variant-east-asian:normal;fill:#ffffff;fill-opacity:1;stroke-width:0.264583"
         x="447.1803"
         y="74.418549">ord</tspan></text>
    <text
       xml:space="preserve"
       style="font-size:10.5833px;line-height:1.25;font-family:sans-serif;letter-spacing:0px;fill:#232323;fill-opacity:1;stroke-width:0.264583"
       x="447.03946"
       y="81.296249"
       id="text14490-3-2-8-6-71"><tspan
         sodipodi:role="line"
         id="tspan14488-6-0-5-9-7"
         style="font-weight:bold;fill:#232323;fill-opacity:1;stroke-width:0.264583"
         x="447.03946"
         y="81.296249">uncher</tspan></text>
    <g
       aria-label="W"
       transform="matrix(-0.7643815,0,0,-0.38184433,644.80411,129.45729)"
       id="text88970-1-2-5-1-0"
       style="font-size:40px;line-height:1.25;font-family:Dyuthi;-inkscape-font-specification:'Dyuthi, Normal';letter-spacing:0px;white-space:pre;shape-inside:url(#rect88972);fill:#232323;fill-opacity:1">
      <path
         d="m 289.00391,116.80469 q 0,0 0.42968,0 1.48438,0 2.34375,1.1914 0.85938,1.19141 0.33203,2.65625 l -6.26953,18.06641 q -0.46875,1.34766 -1.62109,2.20703 -1.15234,0.85938 -2.65625,0.85938 h -0.0781 q -1.58203,0 -2.83203,-0.9961 -1.26953,-0.99609 -1.66015,-2.5 l -2.5586,-10.37109 -2.63672,10.37109 q -0.37109,1.44531 -1.64062,2.5 -1.21094,0.9961 -2.77344,0.9961 h -0.0781 q -1.42578,0 -2.65625,-0.87891 -1.23047,-0.87891 -1.69922,-2.1875 l -6.26953,-18.06641 q -0.48828,-1.38671 0.35156,-2.61718 0.85937,-1.23047 2.36328,-1.23047 h 0.42969 q 0.9375,0 1.67969,0.52734 0.76171,0.50781 1.01562,1.48438 l 2.36328,8.82812 q 2.36328,8.35938 2.34375,8.55469 h 0.11719 q 1.28906,-6.25 3.88672,-16.89453 0.23437,-1.07422 1.09375,-1.77735 0.85937,-0.70312 2.03125,-0.72265 h 0.0781 q 1.13282,0 2.01172,0.70312 0.87891,0.70313 1.15235,1.79688 2.36328,9.41406 3.88671,16.89453 h 0.11719 q 0.0977,-0.46875 2.34375,-8.55469 l 2.32422,-8.82812 q 0.21484,-0.80078 0.97656,-1.40625 0.76172,-0.60547 1.75782,-0.60547 z"
         style="font-size:40px;line-height:1.25;font-family:Dyuthi;-inkscape-font-specification:'Dyuthi, Normal';letter-spacing:0px;white-space:pre;shape-inside:url(#rect88972);fill:#232323;fill-opacity:1"
         id="path115808-5-3-0-3-6" />
    </g>
    <rect
       style="fill:#ff5400;fill-opacity:1;stroke:none;stroke-width:0.5045;stroke-miterlimit:4;stroke-dasharray:none"
       id="rect2590-38-1-3"
       width="40"
       height="40"
       x="315.95663"
       y="3.5937819"
       ry="20"
       rx="18.947563" />
    <g
       aria-label="W"
       transform="matrix(0.8085223,0,0,0.6049318,114.79357,-59.265739)"
       id="text88970-0-2-1"
       style="font-size:40px;line-height:1.25;font-family:Dyuthi;-inkscape-font-specification:'Dyuthi, Normal';letter-spacing:0px;white-space:pre;shape-inside:url(#rect88972);fill:#ffffff;fill-opacity:1">
      <path
         d="m 288.34942,117.67944 q 0,0 0.42968,0 1.48438,0 2.34375,1.1914 0.85938,1.19141 0.33203,2.65625 l -6.26953,18.06641 q -0.46875,1.34766 -1.62109,2.20703 -1.15234,0.85938 -2.65625,0.85938 h -0.0781 q -1.58203,0 -2.83203,-0.9961 -1.26953,-0.99609 -1.66015,-2.5 l -2.5586,-10.37109 -2.63672,10.37109 q -0.37109,1.44531 -1.64062,2.5 -1.21094,0.9961 -2.77344,0.9961 h -0.0781 q -1.42578,0 -2.65625,-0.87891 -1.23047,-0.87891 -1.69922,-2.1875 l -6.26953,-18.06641 q -0.48828,-1.38671 0.35156,-2.61718 0.85937,-1.23047 2.36328,-1.23047 h 0.42969 q 0.9375,0 1.67969,0.52734 0.76171,0.50781 1.01562,1.48438 l 2.36328,8.82812 q 2.36328,8.35938 2.34375,8.55469 h 0.11719 q 1.28906,-6.25 3.88672,-16.89453 0.23437,-1.07422 1.09375,-1.77735 0.85937,-0.70312 2.03125,-0.72265 h 0.0781 q 1.13282,0 2.01172,0.70312 0.87891,0.70313 1.15235,1.79688 2.36328,9.41406 3.88671,16.89453 h 0.11719 q 0.0977,-0.46875 2.34375,-8.55469 l 2.32422,-8.82812 q 0.21484,-0.80078 0.97656,-1.40625 0.76172,-0.60547 1.75782,-0.60547 z"
         style="font-size:40px;line-height:1.25;font-family:Dyuthi;-inkscape-font-specification:'Dyuthi, Normal';letter-spacing:0px;white-space:pre;shape-inside:url(#rect88972);fill:#ffffff;fill-opacity:1"
         id="path115808-9-6-5" />
    </g>
    <g
       aria-label="W"
       transform="matrix(-0.8085223,0,0,-0.38184433,558.51881,80.644461)"
       id="text88970-1-2-4-2"
       style="font-size:40px;line-height:1.25;font-family:Dyuthi;-inkscape-font-specification:'Dyuthi, Normal';letter-spacing:0px;white-space:pre;shape-inside:url(#rect88972);fill:#232323;fill-opacity:1">
      <path
         d="m 289.6584,115.41887 q 0,0 0.42968,0 1.48438,0 2.34375,1.1914 0.85938,1.19141 0.33203,2.65625 l -6.26953,18.06641 q -0.46875,1.34766 -1.62109,2.20703 -1.15234,0.85938 -2.65625,0.85938 h -0.0781 q -1.58203,0 -2.83203,-0.9961 -1.26953,-0.99609 -1.66015,-2.5 l -2.5586,-10.37109 -2.63672,10.37109 q -0.37109,1.44531 -1.64062,2.5 -1.21094,0.9961 -2.77344,0.9961 h -0.0781 q -1.42578,0 -2.65625,-0.87891 -1.23047,-0.87891 -1.69922,-2.1875 l -6.26953,-18.06641 q -0.48828,-1.38671 0.35156,-2.61718 0.85937,-1.23047 2.36328,-1.23047 h 0.42969 q 0.9375,0 1.67969,0.52734 0.76171,0.50781 1.01562,1.48438 l 2.36328,8.82812 q 2.36328,8.35938 2.34375,8.55469 h 0.11719 q 1.28906,-6.25 3.88672,-16.89453 0.23437,-1.07422 1.09375,-1.77735 0.85937,-0.70312 2.03125,-0.72265 h 0.0781 q 1.13282,0 2.01172,0.70312 0.87891,0.70313 1.15235,1.79688 2.36328,9.41406 3.88671,16.89453 h 0.11719 q 0.0977,-0.46875 2.34375,-8.55469 l 2.32422,-8.82812 q 0.21484,-0.80078 0.97656,-1.40625 0.76172,-0.60547 1.75782,-0.60547 z"
         style="font-size:40px;line-height:1.25;font-family:Dyuthi;-inkscape-font-specification:'Dyuthi, Normal';letter-spacing:0px;white-space:pre;shape-inside:url(#rect88972);fill:#232323;fill-opacity:1"
         id="path115808-5-3-8-6" />
    </g>
    <rect
       style="fill:#ff5400;fill-opacity:1;stroke:none;stroke-width:0.675062;stroke-miterlimit:4;stroke-dasharray:none"
       id="rect2590-3-1-5-9"
       width="79.852173"
       height="35.875557"
       x="314.41473"
       y="55.958431"
       ry="1.1251302"
       rx="1.3048882" />
    <g
       aria-label="W"
       transform="matrix(0.7643815,0,0,0.6049318,124.57377,-9.3919255)"
       id="text88970-2-8-6-4"
       style="font-size:40px;line-height:1.25;font-family:Dyuthi;-inkscape-font-specification:'Dyuthi, Normal';letter-spacing:0px;white-space:pre;shape-inside:url(#rect88972);fill:#ffffff;fill-opacity:1">
      <path
         d="m 289.00391,116.80469 q 0,0 0.42968,0 1.48438,0 2.34375,1.1914 0.85938,1.19141 0.33203,2.65625 l -6.26953,18.06641 q -0.46875,1.34766 -1.62109,2.20703 -1.15234,0.85938 -2.65625,0.85938 h -0.0781 q -1.58203,0 -2.83203,-0.9961 -1.26953,-0.99609 -1.66015,-2.5 l -2.5586,-10.37109 -2.63672,10.37109 q -0.37109,1.44531 -1.64062,2.5 -1.21094,0.9961 -2.77344,0.9961 h -0.0781 q -1.42578,0 -2.65625,-0.87891 -1.23047,-0.87891 -1.69922,-2.1875 l -6.26953,-18.06641 q -0.48828,-1.38671 0.35156,-2.61718 0.85937,-1.23047 2.36328,-1.23047 h 0.42969 q 0.9375,0 1.67969,0.52734 0.76171,0.50781 1.01562,1.48438 l 2.36328,8.82812 q 2.36328,8.35938 2.34375,8.55469 h 0.11719 q 1.28906,-6.25 3.88672,-16.89453 0.23437,-1.07422 1.09375,-1.77735 0.85937,-0.70312 2.03125,-0.72265 h 0.0781 q 1.13282,0 2.01172,0.70312 0.87891,0.70313 1.15235,1.79688 2.36328,9.41406 3.88671,16.89453 h 0.11719 q 0.0977,-0.46875 2.34375,-8.55469 l 2.32422,-8.82812 q 0.21484,-0.80078 0.97656,-1.40625 0.76172,-0.60547 1.75782,-0.60547 z"
         style="font-size:40px;line-height:1.25;font-family:Dyuthi;-inkscape-font-specification:'Dyuthi, Normal';letter-spacing:0px;white-space:pre;shape-inside:url(#rect88972);fill:#ffffff;fill-opacity:1"
         id="path115808-1-7-2-4" />
    </g>
    <text
       xml:space="preserve"
       style="font-size:10.5833px;line-height:1.25;font-family:sans-serif;letter-spacing:0px;fill:#232323;fill-opacity:1;stroke-width:0.264583"
       x="348.15323"
       y="73.260216"
       id="text14490-6-6-5-6"><tspan
         sodipodi:role="line"
         id="tspan14488-8-3-2-0"
         style="font-style:normal;font-variant:normal;font-weight:bold;font-stretch:normal;font-size:10.5833px;font-family:sans-serif;-inkscape-font-specification:'sans-serif, Bold';font-variant-ligatures:normal;font-variant-caps:normal;font-variant-numeric:normal;font-variant-east-asian:normal;fill:#232323;fill-opacity:1;stroke-width:0.264583"
         x="348.15323"
         y="73.260216">ord</tspan></text>
    <text
       xml:space="preserve"
       style="font-size:10.5833px;line-height:1.25;font-family:sans-serif;letter-spacing:0px;fill:#232323;fill-opacity:1;stroke-width:0.264583"
       x="347.7478"
       y="82.916054"
       id="text14490-3-2-8-6-7"><tspan
         sodipodi:role="line"
         id="tspan14488-6-0-5-9-4"
         style="font-weight:bold;fill:#232323;fill-opacity:1;stroke-width:0.264583"
         x="347.7478"
         y="82.916054">uncher</tspan></text>
    <g
       aria-label="W"
       transform="matrix(-0.7643815,0,0,-0.38184433,544.18951,130.54793)"
       id="text88970-1-2-5-1-3"
       style="font-size:40px;line-height:1.25;font-family:Dyuthi;-inkscape-font-specification:'Dyuthi, Normal';letter-spacing:0px;white-space:pre;shape-inside:url(#rect88972);fill:#232323;fill-opacity:1">
      <path
         d="m 289.00391,116.80469 q 0,0 0.42968,0 1.48438,0 2.34375,1.1914 0.85938,1.19141 0.33203,2.65625 l -6.26953,18.06641 q -0.46875,1.34766 -1.62109,2.20703 -1.15234,0.85938 -2.65625,0.85938 h -0.0781 q -1.58203,0 -2.83203,-0.9961 -1.26953,-0.99609 -1.66015,-2.5 l -2.5586,-10.37109 -2.63672,10.37109 q -0.37109,1.44531 -1.64062,2.5 -1.21094,0.9961 -2.77344,0.9961 h -0.0781 q -1.42578,0 -2.65625,-0.87891 -1.23047,-0.87891 -1.69922,-2.1875 l -6.26953,-18.06641 q -0.48828,-1.38671 0.35156,-2.61718 0.85937,-1.23047 2.36328,-1.23047 h 0.42969 q 0.9375,0 1.67969,0.52734 0.76171,0.50781 1.01562,1.48438 l 2.36328,8.82812 q 2.36328,8.35938 2.34375,8.55469 h 0.11719 q 1.28906,-6.25 3.88672,-16.89453 0.23437,-1.07422 1.09375,-1.77735 0.85937,-0.70312 2.03125,-0.72265 h 0.0781 q 1.13282,0 2.01172,0.70312 0.87891,0.70313 1.15235,1.79688 2.36328,9.41406 3.88671,16.89453 h 0.11719 q 0.0977,-0.46875 2.34375,-8.55469 l 2.32422,-8.82812 q 0.21484,-0.80078 0.97656,-1.40625 0.76172,-0.60547 1.75782,-0.60547 z"
         style="font-size:40px;line-height:1.25;font-family:Dyuthi;-inkscape-font-specification:'Dyuthi, Normal';letter-spacing:0px;white-space:pre;shape-inside:url(#rect88972);fill:#232323;fill-opacity:1"
         id="path115808-5-3-0-3-7" />
    </g>
  </g>
</svg>
