<?xml version="1.0" encoding="UTF-8" standalone="no"?>
<!-- Created with Inkscape (http://www.inkscape.org/) -->

<svg
   width="40mm"
   height="40mm"
   viewBox="0 0 40 40"
   version="1.1"
   id="svg5"
   inkscape:version="1.1.1 (eb90963e84, 2021-10-02)"
   sodipodi:docname="logo-dark.svg"
   xmlns:inkscape="http://www.inkscape.org/namespaces/inkscape"
   xmlns:sodipodi="http://sodipodi.sourceforge.net/DTD/sodipodi-0.dtd"
   xmlns:xlink="http://www.w3.org/1999/xlink"
   xmlns="http://www.w3.org/2000/svg"
   xmlns:svg="http://www.w3.org/2000/svg">
  <sodipodi:namedview
     id="namedview7"
     pagecolor="#ffffff"
     bordercolor="#666666"
     borderopacity="1.0"
     inkscape:pageshadow="2"
     inkscape:pageopacity="0.0"
     inkscape:pagecheckerboard="0"
     inkscape:document-units="mm"
     showgrid="false"
     showguides="false"
     width="40mm"
     inkscape:zoom="1"
     inkscape:cx="260.5"
     inkscape:cy="279.5"
     inkscape:window-width="1870"
     inkscape:window-height="1016"
     inkscape:window-x="50"
     inkscape:window-y="27"
     inkscape:window-maximized="1"
     inkscape:current-layer="layer1"
     fit-margin-right="1.9"
     lock-margins="true"
     fit-margin-top="1.9"
     fit-margin-left="1.9"
     fit-margin-bottom="1.9" />
  <defs
     id="defs2">
    <rect
       x="253.74939"
       y="108.38699"
       width="41.715538"
       height="45.352875"
       id="rect88972" />
    <rect
       x="30.802549"
       y="363.95322"
       width="166.14456"
       height="185.2319"
       id="rect6860" />
    <linearGradient
       inkscape:collect="always"
       id="linearGradient839">
      <stop
         style="stop-color:#ff0000;stop-opacity:1"
         offset="0"
         id="stop835" />
      <stop
         style="stop-color:#ffa000;stop-opacity:1"
         offset="1"
         id="stop837" />
    </linearGradient>
    <linearGradient
       inkscape:collect="always"
       xlink:href="#linearGradient839"
       id="linearGradient2786"
       x1="11.69412"
       y1="99.326401"
       x2="28.986046"
       y2="114.60438"
       gradientUnits="userSpaceOnUse"
       gradientTransform="matrix(0.95368666,0,0,0.95368666,-2.8975924,-85.490935)" />
  </defs>
  <g
     inkscape:label="Layer 1"
     inkscape:groupmode="layer"
     id="layer1"
     transform="translate(1.9,1.9)">
    <rect
       style="opacity:1;fill:url(#linearGradient2786);fill-opacity:1;stroke:none;stroke-width:0.5045;stroke-miterlimit:4;stroke-dasharray:none"
       id="rect2590"
       width="40"
       height="40"
       x="-1.9"
       y="-1.9"
       ry="3.9954131"
       rx="4.0041575" />
    <g
       aria-label="W"
       transform="matrix(0.7643815,0,0,0.6049318,-191.36676,-67.250371)"
       id="text88970"
       style="font-size:40px;line-height:1.25;font-family:Dyuthi;-inkscape-font-specification:'Dyuthi, Normal';letter-spacing:0px;white-space:pre;shape-inside:url(#rect88972);fill:#ffffff;fill-opacity:1">
      <path
         d="m 289.00391,116.80469 q 0,0 0.42968,0 1.48438,0 2.34375,1.1914 0.85938,1.19141 0.33203,2.65625 l -6.26953,18.06641 q -0.46875,1.34766 -1.62109,2.20703 -1.15234,0.85938 -2.65625,0.85938 h -0.0781 q -1.58203,0 -2.83203,-0.9961 -1.26953,-0.99609 -1.66015,-2.5 l -2.5586,-10.37109 -2.63672,10.37109 q -0.37109,1.44531 -1.64062,2.5 -1.21094,0.9961 -2.77344,0.9961 h -0.0781 q -1.42578,0 -2.65625,-0.87891 -1.23047,-0.87891 -1.69922,-2.1875 l -6.26953,-18.06641 q -0.48828,-1.38671 0.35156,-2.61718 0.85937,-1.23047 2.36328,-1.23047 h 0.42969 q 0.9375,0 1.67969,0.52734 0.76171,0.50781 1.01562,1.48438 l 2.36328,8.82812 q 2.36328,8.35938 2.34375,8.55469 h 0.11719 q 1.28906,-6.25 3.88672,-16.89453 0.23437,-1.07422 1.09375,-1.77735 0.85937,-0.70312 2.03125,-0.72265 h 0.0781 q 1.13282,0 2.01172,0.70312 0.87891,0.70313 1.15235,1.79688 2.36328,9.41406 3.88671,16.89453 h 0.11719 q 0.0977,-0.46875 2.34375,-8.55469 l 2.32422,-8.82812 q 0.21484,-0.80078 0.97656,-1.40625 0.76172,-0.60547 1.75782,-0.60547 z"
         style="font-size:40px;line-height:1.25;font-family:Dyuthi;-inkscape-font-specification:'Dyuthi, Normal';letter-spacing:0px;white-space:pre;shape-inside:url(#rect88972);fill:#ffffff;fill-opacity:1"
         id="path115808" />
    </g>
    <g
       aria-label="W"
       transform="matrix(-0.7643815,0,0,-0.6049318,228.13355,104.29033)"
       id="text88970-1"
       style="font-size:40px;line-height:1.25;font-family:Dyuthi;-inkscape-font-specification:'Dyuthi, Normal';letter-spacing:0px;white-space:pre;shape-inside:url(#rect88972);fill:#232323;fill-opacity:1">
      <path
         d="m 289.00391,116.80469 q 0,0 0.42968,0 1.48438,0 2.34375,1.1914 0.85938,1.19141 0.33203,2.65625 l -6.26953,18.06641 q -0.46875,1.34766 -1.62109,2.20703 -1.15234,0.85938 -2.65625,0.85938 h -0.0781 q -1.58203,0 -2.83203,-0.9961 -1.26953,-0.99609 -1.66015,-2.5 l -2.5586,-10.37109 -2.63672,10.37109 q -0.37109,1.44531 -1.64062,2.5 -1.21094,0.9961 -2.77344,0.9961 h -0.0781 q -1.42578,0 -2.65625,-0.87891 -1.23047,-0.87891 -1.69922,-2.1875 l -6.26953,-18.06641 q -0.48828,-1.38671 0.35156,-2.61718 0.85937,-1.23047 2.36328,-1.23047 h 0.42969 q 0.9375,0 1.67969,0.52734 0.76171,0.50781 1.01562,1.48438 l 2.36328,8.82812 q 2.36328,8.35938 2.34375,8.55469 h 0.11719 q 1.28906,-6.25 3.88672,-16.89453 0.23437,-1.07422 1.09375,-1.77735 0.85937,-0.70312 2.03125,-0.72265 h 0.0781 q 1.13282,0 2.01172,0.70312 0.87891,0.70313 1.15235,1.79688 2.36328,9.41406 3.88671,16.89453 h 0.11719 q 0.0977,-0.46875 2.34375,-8.55469 l 2.32422,-8.82812 q 0.21484,-0.80078 0.97656,-1.40625 0.76172,-0.60547 1.75782,-0.60547 z"
         style="font-size:40px;line-height:1.25;font-family:Dyuthi;-inkscape-font-specification:'Dyuthi, Normal';letter-spacing:0px;white-space:pre;shape-inside:url(#rect88972);fill:#232323;fill-opacity:1"
         id="path115808-5" />
    </g>
  </g>
</svg>
